<svg xmlns="http://www.w3.org/2000/svg" xmlns:xlink="http://www.w3.org/1999/xlink" width="2400" height="1800" version="1.0"><rect width="100%" height="100%" x="0" y="0" fill="#fff" fill-opacity="1"/><svg xmlns="http://www.w3.org/2000/svg" xmlns:xlink="http://www.w3.org/1999/xlink" width="2400" height="1800" x="0" y="0" color-interpolation-filters="sRGB" preserveAspectRatio="xMidYMid meet" version="1.0" viewBox="0 0 340 250"><defs><linearGradient id="92" x1="0%" x2="100%" y1="0%" y2="0%"><stop offset="0%" stop-color="#fa71cd"/><stop offset="100%" stop-color="#9b59b6"/></linearGradient><linearGradient id="93" x1="0%" x2="100%" y1="0%" y2="0%"><stop offset="0%" stop-color="#f9d423"/><stop offset="100%" stop-color="#f83600"/></linearGradient><linearGradient id="94" x1="0%" x2="100%" y1="0%" y2="0%"><stop offset="0%" stop-color="#0064d2"/><stop offset="100%" stop-color="#1cb0f6"/></linearGradient><linearGradient id="95" x1="0%" x2="100%" y1="0%" y2="0%"><stop offset="0%" stop-color="#f00978"/><stop offset="100%" stop-color="#3f51b1"/></linearGradient><linearGradient id="96" x1="0%" x2="100%" y1="0%" y2="0%"><stop offset="0%" stop-color="#7873f5"/><stop offset="100%" stop-color="#ec77ab"/></linearGradient><linearGradient id="97" x1="0%" x2="100%" y1="0%" y2="0%"><stop offset="0%" stop-color="#f9d423"/><stop offset="100%" stop-color="#e14fad"/></linearGradient><linearGradient id="98" x1="0%" x2="100%" y1="0%" y2="0%"><stop offset="0%" stop-color="#009efd"/><stop offset="100%" stop-color="#2af598"/></linearGradient><linearGradient id="99" x1="0%" x2="100%" y1="0%" y2="0%"><stop offset="0%" stop-color="#fc0"/><stop offset="100%" stop-color="#00b140"/></linearGradient><linearGradient id="100" x1="0%" x2="100%" y1="0%" y2="0%"><stop offset="0%" stop-color="#d51007"/><stop offset="100%" stop-color="#ff8177"/></linearGradient><linearGradient id="102" x1="0%" x2="100%" y1="0%" y2="0%"><stop offset="0%" stop-color="#a2b6df"/><stop offset="100%" stop-color="#0c3483"/></linearGradient><linearGradient id="103" x1="0%" x2="100%" y1="0%" y2="0%"><stop offset="0%" stop-color="#7ac5d8"/><stop offset="100%" stop-color="#eea2a2"/></linearGradient><linearGradient id="104" x1="0%" x2="100%" y1="0%" y2="0%"><stop offset="0%" stop-color="#00ecbc"/><stop offset="100%" stop-color="#007adf"/></linearGradient><linearGradient id="105" x1="0%" x2="100%" y1="0%" y2="0%"><stop offset="0%" stop-color="#b88746"/><stop offset="100%" stop-color="#fdf5a6"/></linearGradient></defs><g fill="#444" class="iconblsvg-g iconsvg"><g class="tp-name"><g><g><path d="M7.44 0.22Q4.51 0.22 2.98-1.38 1.45-2.97 1.34-5.74L1.34-5.74Q1.32-6.34 1.32-7.68L1.32-7.68Q1.32-9.04 1.34-9.66L1.34-9.66Q1.45-12.43 2.98-14.02 4.51-15.62 7.44-15.62L7.44-15.62Q9.39-15.62 10.76-14.93 12.12-14.23 12.81-13.11 13.51-11.99 13.57-10.71L13.57-10.71Q13.57-10.52 13.43-10.39 13.29-10.27 13.09-10.27L13.09-10.27 11.99-10.27Q11.77-10.27 11.64-10.38 11.51-10.49 11.44-10.76L11.44-10.76Q11.07-12.45 10.09-13.13 9.11-13.82 7.44-13.82L7.44-13.82Q3.61-13.82 3.45-9.55L3.45-9.55Q3.43-8.95 3.43-7.72L3.43-7.72Q3.43-6.49 3.45-5.85L3.45-5.85Q3.61-1.61 7.44-1.61L7.44-1.61Q9.09-1.61 10.08-2.29 11.07-2.97 11.44-4.64L11.44-4.64Q11.51-4.91 11.64-5.02 11.77-5.13 11.99-5.13L11.99-5.13 13.09-5.13Q13.29-5.13 13.43-5 13.57-4.88 13.57-4.69L13.57-4.69Q13.51-3.41 12.81-2.29 12.12-1.17 10.76-0.47 9.39 0.22 7.44 0.22L7.44 0.22ZM20.92 0.22Q18.5 0.22 17.19-1.14 15.88-2.51 15.8-4.77L15.8-4.77 15.77-5.72 15.8-6.67Q15.88-8.93 17.21-10.3 18.55-11.66 20.92-11.66L20.92-11.66Q23.3-11.66 24.63-10.3 25.96-8.93 26.05-6.67L26.05-6.67Q26.09-6.18 26.09-5.72L26.09-5.72Q26.09-5.26 26.05-4.77L26.05-4.77Q25.96-2.51 24.65-1.14 23.34 0.22 20.92 0.22L20.92 0.22ZM20.92-1.43Q22.33-1.43 23.16-2.32 23.98-3.21 24.05-4.88L24.05-4.88Q24.07-5.1 24.07-5.72L24.07-5.72Q24.07-6.34 24.05-6.56L24.05-6.56Q23.98-8.23 23.16-9.12 22.33-10.01 20.92-10.01L20.92-10.01Q19.51-10.01 18.69-9.12 17.86-8.23 17.8-6.56L17.8-6.56 17.78-5.72 17.8-4.88Q17.86-3.21 18.69-2.32 19.51-1.43 20.92-1.43L20.92-1.43ZM33.13 0.22Q31.04 0.22 29.9-1.13 28.75-2.49 28.75-4.73L28.75-4.73 28.75-10.93Q28.75-11.15 28.9-11.3 29.04-11.44 29.26-11.44L29.26-11.44 30.27-11.44Q30.49-11.44 30.63-11.3 30.78-11.15 30.78-10.93L30.78-10.93 30.78-4.84Q30.78-1.5 33.68-1.5L33.68-1.5Q35.09-1.5 35.91-2.39 36.74-3.28 36.74-4.84L36.74-4.84 36.74-10.93Q36.74-11.15 36.88-11.3 37.03-11.44 37.25-11.44L37.25-11.44 38.26-11.44Q38.48-11.44 38.62-11.3 38.76-11.15 38.76-10.93L38.76-10.93 38.76-0.51Q38.76-0.29 38.62-0.14 38.48 0 38.26 0L38.26 0 37.31 0Q37.09 0 36.95-0.14 36.81-0.29 36.81-0.51L36.81-0.51 36.81-1.5Q36.17-0.64 35.31-0.21 34.45 0.22 33.13 0.22L33.13 0.22ZM42.57 0Q42.35 0 42.21-0.14 42.06-0.29 42.06-0.51L42.06-0.51 42.06-10.93Q42.06-11.15 42.21-11.3 42.35-11.44 42.57-11.44L42.57-11.44 43.52-11.44Q43.76-11.44 43.89-11.31 44.02-11.18 44.02-10.93L44.02-10.93 44.02-9.97Q44.68-10.78 45.55-11.22 46.42-11.66 47.72-11.66L47.72-11.66Q49.83-11.66 51-10.31 52.16-8.95 52.16-6.73L52.16-6.73 52.16-0.51Q52.16-0.29 52.02-0.14 51.88 0 51.66 0L51.66 0 50.64 0Q50.42 0 50.28-0.14 50.14-0.29 50.14-0.51L50.14-0.51 50.14-6.6Q50.14-8.18 49.37-9.06 48.6-9.94 47.17-9.94L47.17-9.94Q45.76-9.94 44.92-9.05 44.09-8.16 44.09-6.6L44.09-6.6 44.09-0.51Q44.09-0.29 43.95-0.14 43.8 0 43.58 0L43.58 0 42.57 0ZM59.6 0Q56.19 0 56.19-3.85L56.19-3.85 56.19-9.75 54.45-9.75Q54.23-9.75 54.1-9.88 53.97-10.01 53.97-10.23L53.97-10.23 53.97-10.93Q53.97-11.15 54.1-11.3 54.23-11.44 54.45-11.44L54.45-11.44 56.19-11.44 56.19-15.11Q56.19-15.33 56.32-15.48 56.45-15.62 56.67-15.62L56.67-15.62 57.64-15.62Q57.86-15.62 58-15.48 58.15-15.33 58.15-15.11L58.15-15.11 58.15-11.44 60.87-11.44Q61.09-11.44 61.24-11.3 61.38-11.15 61.38-10.93L61.38-10.93 61.38-10.23Q61.38-10.01 61.24-9.88 61.09-9.75 60.87-9.75L60.87-9.75 58.15-9.75 58.15-4Q58.15-2.88 58.51-2.31 58.87-1.74 59.75-1.74L59.75-1.74 61.09-1.74Q61.31-1.74 61.45-1.59 61.58-1.45 61.58-1.23L61.58-1.23 61.58-0.51Q61.58-0.29 61.45-0.14 61.31 0 61.09 0L61.09 0 59.6 0ZM68.27 0.22Q66.02 0.22 64.68-1.18 63.34-2.57 63.21-4.99L63.21-4.99 63.18-5.74 63.21-6.47Q63.34-8.84 64.68-10.25 66.02-11.66 68.27-11.66L68.27-11.66Q70.69-11.66 72.02-10.12 73.35-8.58 73.35-5.94L73.35-5.94 73.35-5.54Q73.35-5.32 73.2-5.18 73.06-5.04 72.84-5.04L72.84-5.04 65.21-5.04 65.21-4.84Q65.27-3.41 66.09-2.4 66.9-1.39 68.24-1.39L68.24-1.39Q69.28-1.39 69.93-1.79 70.58-2.2 70.91-2.64L70.91-2.64Q71.1-2.9 71.21-2.96 71.32-3.01 71.59-3.01L71.59-3.01 72.56-3.01Q72.75-3.01 72.9-2.9 73.04-2.79 73.04-2.62L73.04-2.62Q73.04-2.13 72.45-1.45 71.85-0.77 70.76-0.27 69.67 0.22 68.27 0.22L68.27 0.22ZM65.21-6.53L71.35-6.53 71.35-6.6Q71.35-8.14 70.51-9.11 69.67-10.08 68.27-10.08L68.27-10.08Q66.84-10.08 66.02-9.11 65.21-8.14 65.21-6.6L65.21-6.6 65.21-6.53ZM76.54 0Q76.32 0 76.17-0.14 76.03-0.29 76.03-0.51L76.03-0.51 76.03-10.91Q76.03-11.13 76.17-11.29 76.32-11.44 76.54-11.44L76.54-11.44 77.46-11.44Q77.7-11.44 77.85-11.3 77.99-11.15 77.99-10.91L77.99-10.91 77.99-9.94Q78.89-11.44 81.05-11.44L81.05-11.44 81.91-11.44Q82.15-11.44 82.28-11.31 82.41-11.18 82.41-10.93L82.41-10.93 82.41-10.12Q82.41-9.9 82.28-9.76 82.15-9.61 81.91-9.61L81.91-9.61 80.65-9.61Q79.44-9.61 78.75-8.91 78.06-8.21 78.06-7L78.06-7 78.06-0.51Q78.06-0.29 77.9-0.14 77.75 0 77.53 0L77.53 0 76.54 0Z" transform="translate(75.83330541849136,103.73030471801758) translate(0,0) translate(0, 6.271694316864013) scale(1) translate(-1.3200000524520874, 15.619999885559082)"/></g></g><g><g><g fill="#444" class="imagesvg" transform="translate(75.83330541849136,103.73030471801758) translate(0,0) translate(84.09000396728516, 0)"><rect width="28.383" height="28.383" x="0" y="0" fill="#444" fill-opacity="0" stroke-width="2" class="image-rect"/><svg width="28.383" height="28.383" x="0" y="0" class="image-svg-svg bn" viewBox="0 0 60 60" style="overflow:visible"><g hollow-target="iconBnFill" mask="url(#9271ad2b-23db-44a4-bdcc-91ea2b711736)"><g><svg xmlns="http://www.w3.org/2000/svg" xmlns:xlink="http://www.w3.org/1999/xlink" width="60" height="60" x="0" y="0" fill="#000" clip-rule="evenodd" version="1.1" xml:space="preserve" style="shape-rendering:geometricprecision;text-rendering:geometricprecision;overflow:visible" fill-rule="evenodd" filter="url(#6kwad6bTo7wbv2bLby9eU)" filtersec="colorsf6455657016" viewBox="0 0 300 300"><g transform="scale(1, 1) skewX(0)"><defs><filter id="6kwad6bTo7wbv2bLby9eU"><feColorMatrix type="matrix" values="0 0 0 0 0.265625 0 0 0 0 0.265625 0 0 0 0 0.265625 0 0 0 1 0"/></filter></defs><g><circle cx="150" cy="150" r="150" class="fil0"/></g></g></svg></g><g filter="url(#colors9518281851)"><svg xmlns="http://www.w3.org/2000/svg" width="59" height="59" x=".5" y=".5" class="image-svg-icon" viewBox="0 0 85.4 57.2"><path fill="none" stroke="#333" stroke-miterlimit="10" stroke-width="4" d="M1.4 55.7l40.5-40.5c3.6-3.6 8.6-5.8 14.1-5.8 11 0 20 8.9 20 20 0 11-8.9 20-20 20M29.4 7.8c-11 0-20 8.9-20 20v-.4c0 11 8.9 20.3 20 20.3h.6c5.5 0 9.9-2.2 13.5-5.9L84 1.4"/></svg></g></g><mask id="9271ad2b-23db-44a4-bdcc-91ea2b711736"><g fill="#fff"><svg xmlns="http://www.w3.org/2000/svg" xmlns:xlink="http://www.w3.org/1999/xlink" width="60" height="60" x="0" y="0" fill-rule="evenodd" version="1.1" xml:space="preserve" style="shape-rendering:geometricprecision;text-rendering:geometricprecision;overflow:visible" clip-rule="evenodd" filtersec="colorsf6455657016" viewBox="0 0 300 300"><g><g transform="scale(1, 1) skewX(0)"><circle cx="150" cy="150" r="150"/></g></g></svg></g><g fill="#000"><svg xmlns="http://www.w3.org/2000/svg" width="59" height="59" x=".5" y=".5" class="image-svg-icon" viewBox="0 0 85.4 57.2"><path fill="none" stroke="#000" stroke-miterlimit="10" stroke-width="4" d="M1.4 55.7l40.5-40.5c3.6-3.6 8.6-5.8 14.1-5.8 11 0 20 8.9 20 20 0 11-8.9 20-20 20M29.4 7.8c-11 0-20 8.9-20 20v-.4c0 11 8.9 20.3 20 20.3h.6c5.5 0 9.9-2.2 13.5-5.9L84 1.4"/></svg></g></mask></svg><defs><filter id="colors9518281851"><feColorMatrix class="icon-feColorMatrix" type="matrix" values="0 0 0 0 0.265625 0 0 0 0 0.265625 0 0 0 0 0.265625 0 0 0 1 0"/></filter><filter id="colorsf6455657016"><feColorMatrix class="icon-fecolormatrix" type="matrix" values="0 0 0 0 0.99609375 0 0 0 0 0.99609375 0 0 0 0 0.99609375 0 0 0 1 0"/></filter><filter id="colorsb1991422642"><feColorMatrix class="icon-fecolormatrix" type="matrix" values="0 0 0 0 0 0 0 0 0 0 0 0 0 0 0 0 0 0 1 0"/></filter></defs></g></g></g><g fill="#444"><g><path d="M7.44 0.22Q4.51 0.22 2.98-1.38 1.45-2.97 1.34-5.74L1.34-5.74Q1.32-6.34 1.32-7.68L1.32-7.68Q1.32-9.04 1.34-9.66L1.34-9.66Q1.45-12.43 2.98-14.02 4.51-15.62 7.44-15.62L7.44-15.62Q9.39-15.62 10.76-14.93 12.12-14.23 12.81-13.11 13.51-11.99 13.57-10.71L13.57-10.71Q13.57-10.52 13.43-10.39 13.29-10.27 13.09-10.27L13.09-10.27 11.99-10.27Q11.77-10.27 11.64-10.38 11.51-10.49 11.44-10.76L11.44-10.76Q11.07-12.45 10.09-13.13 9.11-13.82 7.44-13.82L7.44-13.82Q3.61-13.82 3.45-9.55L3.45-9.55Q3.43-8.95 3.43-7.72L3.43-7.72Q3.43-6.49 3.45-5.85L3.45-5.85Q3.61-1.61 7.44-1.61L7.44-1.61Q9.09-1.61 10.08-2.29 11.07-2.97 11.44-4.64L11.44-4.64Q11.51-4.91 11.64-5.02 11.77-5.13 11.99-5.13L11.99-5.13 13.09-5.13Q13.29-5.13 13.43-5 13.57-4.88 13.57-4.69L13.57-4.69Q13.51-3.41 12.81-2.29 12.12-1.17 10.76-0.47 9.39 0.22 7.44 0.22L7.44 0.22ZM20.55 0.22Q18.46 0.22 17.31-1.13 16.17-2.49 16.17-4.73L16.17-4.73 16.17-10.93Q16.17-11.15 16.31-11.3 16.46-11.44 16.68-11.44L16.68-11.44 17.69-11.44Q17.91-11.44 18.05-11.3 18.19-11.15 18.19-10.93L18.19-10.93 18.19-4.84Q18.19-1.5 21.1-1.5L21.1-1.5Q22.51-1.5 23.33-2.39 24.16-3.28 24.16-4.84L24.16-4.84 24.16-10.93Q24.16-11.15 24.3-11.3 24.44-11.44 24.66-11.44L24.66-11.44 25.67-11.44Q25.89-11.44 26.04-11.3 26.18-11.15 26.18-10.93L26.18-10.93 26.18-0.51Q26.18-0.29 26.04-0.14 25.89 0 25.67 0L25.67 0 24.73 0Q24.51 0 24.36-0.14 24.22-0.29 24.22-0.51L24.22-0.51 24.22-1.5Q23.58-0.64 22.73-0.21 21.87 0.22 20.55 0.22L20.55 0.22ZM30.01 0Q29.79 0 29.64-0.14 29.5-0.29 29.5-0.51L29.5-0.51 29.5-15.11Q29.5-15.36 29.64-15.49 29.79-15.62 30.01-15.62L30.01-15.62 30.98-15.62Q31.2-15.62 31.34-15.48 31.48-15.33 31.48-15.11L31.48-15.11 31.48-0.51Q31.48-0.29 31.34-0.14 31.2 0 30.98 0L30.98 0 30.01 0ZM39.18 0Q35.77 0 35.77-3.85L35.77-3.85 35.77-9.75 34.03-9.75Q33.81-9.75 33.68-9.88 33.55-10.01 33.55-10.23L33.55-10.23 33.55-10.93Q33.55-11.15 33.68-11.3 33.81-11.44 34.03-11.44L34.03-11.44 35.77-11.44 35.77-15.11Q35.77-15.33 35.9-15.48 36.04-15.62 36.26-15.62L36.26-15.62 37.22-15.62Q37.44-15.62 37.59-15.48 37.73-15.33 37.73-15.11L37.73-15.11 37.73-11.44 40.46-11.44Q40.68-11.44 40.82-11.3 40.96-11.15 40.96-10.93L40.96-10.93 40.96-10.23Q40.96-10.01 40.82-9.88 40.68-9.75 40.46-9.75L40.46-9.75 37.73-9.75 37.73-4Q37.73-2.88 38.09-2.31 38.46-1.74 39.34-1.74L39.34-1.74 40.68-1.74Q40.9-1.74 41.03-1.59 41.16-1.45 41.16-1.23L41.16-1.23 41.16-0.51Q41.16-0.29 41.03-0.14 40.9 0 40.68 0L40.68 0 39.18 0ZM47.59 0.22Q45.5 0.22 44.35-1.13 43.21-2.49 43.21-4.73L43.21-4.73 43.21-10.93Q43.21-11.15 43.35-11.3 43.49-11.44 43.71-11.44L43.71-11.44 44.73-11.44Q44.95-11.44 45.09-11.3 45.23-11.15 45.23-10.93L45.23-10.93 45.23-4.84Q45.23-1.5 48.14-1.5L48.14-1.5Q49.54-1.5 50.37-2.39 51.19-3.28 51.19-4.84L51.19-4.84 51.19-10.93Q51.19-11.15 51.34-11.3 51.48-11.44 51.7-11.44L51.7-11.44 52.71-11.44Q52.93-11.44 53.08-11.3 53.22-11.15 53.22-10.93L53.22-10.93 53.22-0.51Q53.22-0.29 53.08-0.14 52.93 0 52.71 0L52.71 0 51.77 0Q51.55 0 51.4-0.14 51.26-0.29 51.26-0.51L51.26-0.51 51.26-1.5Q50.62-0.64 49.76-0.21 48.91 0.22 47.59 0.22L47.59 0.22ZM57.02 0Q56.8 0 56.66-0.14 56.52-0.29 56.52-0.51L56.52-0.51 56.52-10.91Q56.52-11.13 56.66-11.29 56.8-11.44 57.02-11.44L57.02-11.44 57.95-11.44Q58.19-11.44 58.33-11.3 58.48-11.15 58.48-10.91L58.48-10.91 58.48-9.94Q59.38-11.44 61.53-11.44L61.53-11.44 62.39-11.44Q62.63-11.44 62.77-11.31 62.9-11.18 62.9-10.93L62.9-10.93 62.9-10.12Q62.9-9.9 62.77-9.76 62.63-9.61 62.39-9.61L62.39-9.61 61.14-9.61Q59.93-9.61 59.23-8.91 58.54-8.21 58.54-7L58.54-7 58.54-0.51Q58.54-0.29 58.39-0.14 58.23 0 58.01 0L58.01 0 57.02 0ZM69.1 0.22Q66.86 0.22 65.52-1.18 64.17-2.57 64.04-4.99L64.04-4.99 64.02-5.74 64.04-6.47Q64.17-8.84 65.52-10.25 66.86-11.66 69.1-11.66L69.1-11.66Q71.52-11.66 72.85-10.12 74.18-8.58 74.18-5.94L74.18-5.94 74.18-5.54Q74.18-5.32 74.04-5.18 73.9-5.04 73.68-5.04L73.68-5.04 66.04-5.04 66.04-4.84Q66.11-3.41 66.92-2.4 67.74-1.39 69.08-1.39L69.08-1.39Q70.11-1.39 70.76-1.79 71.41-2.2 71.74-2.64L71.74-2.64Q71.94-2.9 72.05-2.96 72.16-3.01 72.42-3.01L72.42-3.01 73.39-3.01Q73.59-3.01 73.73-2.9 73.88-2.79 73.88-2.62L73.88-2.62Q73.88-2.13 73.28-1.45 72.69-0.77 71.6-0.27 70.51 0.22 69.1 0.22L69.1 0.22ZM66.04-6.53L72.18-6.53 72.18-6.6Q72.18-8.14 71.35-9.11 70.51-10.08 69.1-10.08L69.1-10.08Q67.67-10.08 66.86-9.11 66.04-8.14 66.04-6.6L66.04-6.6 66.04-6.53Z" transform="translate(75.83330541849136,103.73030471801758) translate(0,0) translate(115.47339248657227, 6.271694316864013) scale(1) translate(-1.3200000524520874, 15.619999885559082)"/></g></g></g><g fill="#444" class="tp-slogan iconsvg-slogansvg"><g><g><path d="M1.08 0L1.08-7.87L2.08-7.87L2.08 0L1.08 0ZM5.24 0L5.24-7.87L6.27-7.87L9.11-2.93L9.96-1.30L10.01-1.30Q9.98-1.90 9.93-2.54Q9.89-3.18 9.89-3.80L9.89-3.80L9.89-7.87L10.84-7.87L10.84 0L9.81 0L6.95-4.96L6.10-6.58L6.05-6.58Q6.10-5.98 6.14-5.36Q6.18-4.74 6.18-4.12L6.18-4.12L6.18 0L5.24 0ZM14.00 0L14.00-7.87L15.03-7.87L17.88-2.93L18.73-1.30L18.78-1.30Q18.74-1.90 18.70-2.54Q18.66-3.18 18.66-3.80L18.66-3.80L18.66-7.87L19.60-7.87L19.60 0L18.57 0L15.72-4.96L14.86-6.58L14.82-6.58Q14.86-5.98 14.91-5.36Q14.95-4.74 14.95-4.12L14.95-4.12L14.95 0L14.00 0ZM25.67 0.14L25.67 0.14Q24.92 0.14 24.31-0.14Q23.69-0.43 23.24-0.97Q22.80-1.50 22.55-2.26Q22.31-3.02 22.31-3.97L22.31-3.97Q22.31-4.92 22.55-5.67Q22.80-6.42 23.24-6.94Q23.69-7.46 24.31-7.74Q24.92-8.02 25.67-8.02L25.67-8.02Q26.41-8.02 27.03-7.73Q27.65-7.45 28.10-6.93Q28.55-6.41 28.79-5.66Q29.04-4.91 29.04-3.97L29.04-3.97Q29.04-3.02 28.79-2.26Q28.55-1.50 28.10-0.97Q27.65-0.43 27.03-0.14Q26.41 0.14 25.67 0.14ZM25.67-0.73L25.67-0.73Q26.20-0.73 26.62-0.96Q27.05-1.19 27.35-1.61Q27.66-2.04 27.83-2.63Q28.00-3.23 28.00-3.97L28.00-3.97Q28.00-4.70 27.83-5.29Q27.66-5.88 27.35-6.29Q27.05-6.70 26.62-6.92Q26.20-7.14 25.67-7.14L25.67-7.14Q25.14-7.14 24.71-6.92Q24.29-6.70 23.98-6.29Q23.68-5.88 23.51-5.29Q23.34-4.70 23.34-3.97L23.34-3.97Q23.34-3.23 23.51-2.63Q23.68-2.04 23.98-1.61Q24.29-1.19 24.71-0.96Q25.14-0.73 25.67-0.73ZM33.05 0L30.53-7.87L31.60-7.87L32.86-3.62Q33.08-2.92 33.24-2.32Q33.40-1.72 33.63-1.02L33.63-1.02L33.68-1.02Q33.89-1.72 34.06-2.32Q34.23-2.92 34.43-3.62L34.43-3.62L35.69-7.87L36.71-7.87L34.22 0L33.05 0ZM39.61-3.20L41.97-3.20L41.60-4.40Q41.38-5.06 41.19-5.72Q41.00-6.37 40.81-7.06L40.81-7.06L40.76-7.06Q40.58-6.37 40.39-5.72Q40.20-5.06 39.98-4.40L39.98-4.40L39.61-3.20ZM42.97 0L42.22-2.40L39.36-2.40L38.60 0L37.58 0L40.24-7.87L41.37-7.87L44.04 0L42.97 0ZM47.30 0L47.30-7.03L44.93-7.03L44.93-7.87L50.69-7.87L50.69-7.03L48.31-7.03L48.31 0L47.30 0ZM53.10 0L53.10-7.87L54.10-7.87L54.10 0L53.10 0ZM58.70 0L56.18-7.87L57.25-7.87L58.51-3.62Q58.72-2.92 58.89-2.32Q59.05-1.72 59.28-1.02L59.28-1.02L59.32-1.02Q59.54-1.72 59.71-2.32Q59.88-2.92 60.08-3.62L60.08-3.62L61.34-7.87L62.36-7.87L59.86 0L58.70 0ZM64.44 0L64.44-7.87L68.98-7.87L68.98-7.03L65.44-7.03L65.44-4.56L68.42-4.56L68.42-3.71L65.44-3.71L65.44-0.85L69.10-0.85L69.10 0L64.44 0ZM74.73-3.94L74.73-3.94Q74.73-4.88 75.00-5.64Q75.26-6.40 75.73-6.92Q76.20-7.45 76.84-7.73Q77.48-8.02 78.24-8.02L78.24-8.02Q78.96-8.02 79.50-7.72Q80.04-7.43 80.38-7.04L80.38-7.04L79.82-6.41Q79.51-6.74 79.13-6.94Q78.75-7.14 78.25-7.14L78.25-7.14Q77.68-7.14 77.23-6.92Q76.77-6.70 76.45-6.28Q76.12-5.87 75.94-5.28Q75.76-4.69 75.76-3.96L75.76-3.96Q75.76-3.22 75.94-2.62Q76.11-2.03 76.42-1.61Q76.74-1.19 77.19-0.96Q77.64-0.73 78.20-0.73L78.20-0.73Q78.78-0.73 79.20-0.96Q79.63-1.19 80.01-1.61L80.01-1.61L80.58-1.00Q80.11-0.46 79.52-0.16Q78.93 0.14 78.18 0.14L78.18 0.14Q77.43 0.14 76.80-0.13Q76.17-0.41 75.71-0.93Q75.25-1.45 74.99-2.21Q74.73-2.98 74.73-3.94ZM82.14-2.63L82.14-3.38L84.90-3.38L84.90-2.63L82.14-2.63ZM86.88-1.02L87.48-1.72Q87.90-1.27 88.47-1.00Q89.04-0.73 89.66-0.73L89.66-0.73Q90.44-0.73 90.87-1.09Q91.30-1.44 91.30-2.02L91.30-2.02Q91.30-2.32 91.20-2.53Q91.10-2.74 90.92-2.89Q90.75-3.04 90.51-3.16Q90.27-3.28 89.99-3.41L89.99-3.41L88.86-3.90Q88.59-4.02 88.30-4.19Q88.01-4.36 87.78-4.60Q87.56-4.84 87.41-5.17Q87.27-5.50 87.27-5.93L87.27-5.93Q87.27-6.37 87.45-6.76Q87.64-7.14 87.97-7.42Q88.30-7.70 88.75-7.86Q89.20-8.02 89.74-8.02L89.74-8.02Q90.45-8.02 91.05-7.75Q91.65-7.48 92.07-7.04L92.07-7.04L91.53-6.40Q91.17-6.74 90.73-6.94Q90.29-7.14 89.74-7.14L89.74-7.14Q89.08-7.14 88.68-6.83Q88.28-6.53 88.28-5.99L88.28-5.99Q88.28-5.70 88.39-5.50Q88.50-5.30 88.70-5.15Q88.89-5.00 89.12-4.89Q89.34-4.78 89.58-4.68L89.58-4.68L90.70-4.20Q91.04-4.06 91.34-3.87Q91.64-3.68 91.85-3.44Q92.07-3.19 92.19-2.86Q92.32-2.53 92.32-2.10L92.32-2.10Q92.32-1.63 92.13-1.22Q91.95-0.82 91.60-0.51Q91.25-0.20 90.76-0.03Q90.27 0.14 89.64 0.14L89.64 0.14Q88.82 0.14 88.11-0.17Q87.40-0.48 86.88-1.02L86.88-1.02ZM96.26 0L96.26-7.03L93.88-7.03L93.88-7.87L99.64-7.87L99.64-7.03L97.27-7.03L97.27 0L96.26 0ZM104.68 0.14L104.68 0.14Q103.93 0.14 103.31-0.14Q102.70-0.43 102.25-0.97Q101.81-1.50 101.56-2.26Q101.32-3.02 101.32-3.97L101.32-3.97Q101.32-4.92 101.56-5.67Q101.81-6.42 102.25-6.94Q102.70-7.46 103.31-7.74Q103.93-8.02 104.68-8.02L104.68-8.02Q105.42-8.02 106.04-7.73Q106.66-7.45 107.11-6.93Q107.56-6.41 107.80-5.66Q108.05-4.91 108.05-3.97L108.05-3.97Q108.05-3.02 107.80-2.26Q107.56-1.50 107.11-0.97Q106.66-0.43 106.04-0.14Q105.42 0.14 104.68 0.14ZM104.68-0.73L104.68-0.73Q105.20-0.73 105.63-0.96Q106.06-1.19 106.36-1.61Q106.67-2.04 106.84-2.63Q107.00-3.23 107.00-3.97L107.00-3.97Q107.00-4.70 106.84-5.29Q106.67-5.88 106.36-6.29Q106.06-6.70 105.63-6.92Q105.20-7.14 104.68-7.14L104.68-7.14Q104.15-7.14 103.72-6.92Q103.30-6.70 102.99-6.29Q102.68-5.88 102.52-5.29Q102.35-4.70 102.35-3.97L102.35-3.97Q102.35-3.23 102.52-2.63Q102.68-2.04 102.99-1.61Q103.30-1.19 103.72-0.96Q104.15-0.73 104.68-0.73ZM111.74-7.07L111.74-4.14L113.06-4.14Q113.98-4.14 114.47-4.52Q114.96-4.90 114.96-5.66L114.96-5.66Q114.96-6.44 114.47-6.76Q113.98-7.07 113.06-7.07L113.06-7.07L111.74-7.07ZM116.19 0L115.06 0L113.16-3.32L111.74-3.32L111.74 0L110.74 0L110.74-7.87L113.20-7.87Q113.80-7.87 114.31-7.76Q114.82-7.64 115.19-7.38Q115.55-7.12 115.76-6.70Q115.96-6.28 115.96-5.66L115.96-5.66Q115.96-4.74 115.48-4.19Q115.00-3.64 114.20-3.43L114.20-3.43L116.19 0ZM118.71 0L118.71-7.87L123.25-7.87L123.25-7.03L119.71-7.03L119.71-4.56L122.70-4.56L122.70-3.71L119.71-3.71L119.71-0.85L123.37-0.85L123.37 0L118.71 0ZM129.46 0L129.46-7.87L131.87-7.87Q132.52-7.87 133.06-7.75Q133.60-7.63 133.98-7.36Q134.36-7.09 134.57-6.65Q134.78-6.20 134.78-5.56L134.78-5.56Q134.78-4.93 134.57-4.48Q134.36-4.02 133.97-3.72Q133.59-3.42 133.05-3.27Q132.52-3.12 131.87-3.12L131.87-3.12L130.46-3.12L130.46 0L129.46 0ZM130.46-3.94L131.75-3.94Q132.78-3.94 133.28-4.33Q133.78-4.72 133.78-5.56L133.78-5.56Q133.78-6.41 133.28-6.74Q132.77-7.07 131.75-7.07L131.75-7.07L130.46-7.07L130.46-3.94ZM138.37-7.07L138.37-4.14L139.69-4.14Q140.61-4.14 141.10-4.52Q141.60-4.90 141.60-5.66L141.60-5.66Q141.60-6.44 141.10-6.76Q140.61-7.07 139.69-7.07L139.69-7.07L138.37-7.07ZM142.82 0L141.69 0L139.80-3.32L138.37-3.32L138.37 0L137.37 0L137.37-7.87L139.83-7.87Q140.43-7.87 140.94-7.76Q141.45-7.64 141.82-7.38Q142.18-7.12 142.39-6.70Q142.59-6.28 142.59-5.66L142.59-5.66Q142.59-4.74 142.11-4.19Q141.63-3.64 140.83-3.43L140.83-3.43L142.82 0ZM148.25 0.14L148.25 0.14Q147.50 0.14 146.89-0.14Q146.27-0.43 145.82-0.97Q145.38-1.50 145.13-2.26Q144.89-3.02 144.89-3.97L144.89-3.97Q144.89-4.92 145.13-5.67Q145.38-6.42 145.82-6.94Q146.27-7.46 146.89-7.74Q147.50-8.02 148.25-8.02L148.25-8.02Q148.99-8.02 149.61-7.73Q150.23-7.45 150.68-6.93Q151.13-6.41 151.37-5.66Q151.62-4.91 151.62-3.97L151.62-3.97Q151.62-3.02 151.37-2.26Q151.13-1.50 150.68-0.97Q150.23-0.43 149.61-0.14Q148.99 0.14 148.25 0.14ZM148.25-0.73L148.25-0.73Q148.78-0.73 149.20-0.96Q149.63-1.19 149.93-1.61Q150.24-2.04 150.41-2.63Q150.58-3.23 150.58-3.97L150.58-3.97Q150.58-4.70 150.41-5.29Q150.24-5.88 149.93-6.29Q149.63-6.70 149.20-6.92Q148.78-7.14 148.25-7.14L148.25-7.14Q147.72-7.14 147.29-6.92Q146.87-6.70 146.56-6.29Q146.26-5.88 146.09-5.29Q145.92-4.70 145.92-3.97L145.92-3.97Q145.92-3.23 146.09-2.63Q146.26-2.04 146.56-1.61Q146.87-1.19 147.29-0.96Q147.72-0.73 148.25-0.73ZM154.31 0L154.31-7.87L156.28-7.87Q158.10-7.87 159.05-6.86Q160.00-5.86 160.00-3.97L160.00-3.97Q160.00-3.04 159.76-2.30Q159.52-1.56 159.05-1.05Q158.58-0.54 157.90-0.27Q157.22 0 156.33 0L156.33 0L154.31 0ZM155.31-0.82L156.21-0.82Q157.59-0.82 158.28-1.64Q158.97-2.47 158.97-3.97L158.97-3.97Q158.97-5.47 158.28-6.26Q157.59-7.06 156.21-7.06L156.21-7.06L155.31-7.06L155.31-0.82ZM162.66-3.25L162.66-7.87L163.65-7.87L163.65-3.23Q163.65-2.52 163.80-2.04Q163.94-1.56 164.19-1.27Q164.43-0.98 164.77-0.86Q165.10-0.73 165.49-0.73L165.49-0.73Q165.88-0.73 166.22-0.86Q166.56-0.98 166.81-1.27Q167.06-1.56 167.20-2.04Q167.35-2.52 167.35-3.23L167.35-3.23L167.35-7.87L168.31-7.87L168.31-3.25Q168.31-2.30 168.09-1.66Q167.88-1.01 167.50-0.61Q167.12-0.20 166.60-0.03Q166.09 0.14 165.49 0.14L165.49 0.14Q164.89 0.14 164.37-0.03Q163.84-0.20 163.47-0.61Q163.09-1.01 162.87-1.66Q162.66-2.30 162.66-3.25L162.66-3.25ZM170.98-3.94L170.98-3.94Q170.98-4.88 171.24-5.64Q171.50-6.40 171.97-6.92Q172.44-7.45 173.08-7.73Q173.72-8.02 174.48-8.02L174.48-8.02Q175.20-8.02 175.74-7.72Q176.28-7.43 176.63-7.04L176.63-7.04L176.06-6.41Q175.75-6.74 175.37-6.94Q175.00-7.14 174.49-7.14L174.49-7.14Q173.93-7.14 173.47-6.92Q173.02-6.70 172.69-6.28Q172.37-5.87 172.19-5.28Q172.01-4.69 172.01-3.96L172.01-3.96Q172.01-3.22 172.18-2.62Q172.36-2.03 172.67-1.61Q172.98-1.19 173.43-0.96Q173.88-0.73 174.44-0.73L174.44-0.73Q175.02-0.73 175.45-0.96Q175.87-1.19 176.26-1.61L176.26-1.61L176.82-1.00Q176.35-0.46 175.76-0.16Q175.18 0.14 174.42 0.14L174.42 0.14Q173.68 0.14 173.05-0.13Q172.42-0.41 171.95-0.93Q171.49-1.45 171.23-2.21Q170.98-2.98 170.98-3.94ZM180.70 0L180.70-7.03L178.32-7.03L178.32-7.87L184.08-7.87L184.08-7.03L181.71-7.03L181.71 0L180.70 0ZM185.46-1.02L186.06-1.72Q186.48-1.27 187.05-1.00Q187.62-0.73 188.23-0.73L188.23-0.73Q189.01-0.73 189.44-1.09Q189.87-1.44 189.87-2.02L189.87-2.02Q189.87-2.32 189.77-2.53Q189.67-2.74 189.49-2.89Q189.32-3.04 189.08-3.16Q188.84-3.28 188.56-3.41L188.56-3.41L187.44-3.90Q187.16-4.02 186.87-4.19Q186.58-4.36 186.36-4.60Q186.13-4.84 185.98-5.17Q185.84-5.50 185.84-5.93L185.84-5.93Q185.84-6.37 186.03-6.76Q186.21-7.14 186.54-7.42Q186.87-7.70 187.32-7.86Q187.77-8.02 188.31-8.02L188.31-8.02Q189.02-8.02 189.62-7.75Q190.22-7.48 190.64-7.04L190.64-7.04L190.10-6.40Q189.74-6.74 189.30-6.94Q188.86-7.14 188.31-7.14L188.31-7.14Q187.65-7.14 187.25-6.83Q186.85-6.53 186.85-5.99L186.85-5.99Q186.85-5.70 186.96-5.50Q187.08-5.30 187.27-5.15Q187.46-5.00 187.69-4.89Q187.92-4.78 188.16-4.68L188.16-4.68L189.27-4.20Q189.61-4.06 189.91-3.87Q190.21-3.68 190.42-3.44Q190.64-3.19 190.77-2.86Q190.89-2.53 190.89-2.10L190.89-2.10Q190.89-1.63 190.71-1.22Q190.52-0.82 190.17-0.51Q189.82-0.20 189.33-0.03Q188.84 0.14 188.22 0.14L188.22 0.14Q187.39 0.14 186.68-0.17Q185.97-0.48 185.46-1.02L185.46-1.02Z" transform="translate(75.83330541849136,103.73030471801758) translate(-0.7383041381835938,34.38338851928711) scale(1, 1) scale(1) translate(-1.08, 8.016)"/></g></g></g></g></svg></svg>