{
    "asset": {
        "version": "2.0",
        "generator": "Open Asset Import Library (assimp v5.2.cf7d3637)"
    },
    "extensionsUsed": [
        "KHR_materials_volume",
        "FB_ngon_encoding"
    ],
    "accessors": [
        {
            "bufferView": 0,
            "byteOffset": 0,
            "componentType": 5126,
            "count": 94446,
            "type": "VEC3",
            "max": [
                0.31107139587402346,
                0.5008479952812195,
                0.34954705834388735
            ],
            "min": [
                -0.28645193576812746,
                -0.4987608790397644,
                -0.3310766816139221
            ]
        },
        {
            "bufferView": 1,
            "byteOffset": 0,
            "componentType": 5126,
            "count": 94446,
            "type": "VEC2",
            "max": [
                0.9995571374893189,
                0.9995594620704651
            ],
            "min": [
                0.00044286978663876653,
                0.0004405379295349121
            ]
        },
        {
            "bufferView": 2,
            "byteOffset": 0,
            "componentType": 5125,
            "count": 94446,
            "type": "SCALAR",
            "max": [
                94445
            ],
            "min": [
                0
            ]
        }
    ],
    "buffers": [
        {
            "byteLength": 2266704,
            "uri": "result.bin"
        }
    ],
    "bufferViews": [
        {
            "buffer": 0,
            "byteOffset": 0,
            "byteLength": 1133352,
            "target": 34962
        },
        {
            "buffer": 0,
            "byteOffset": 1133352,
            "byteLength": 755568,
            "target": 34962
        },
        {
            "buffer": 0,
            "byteOffset": 1888920,
            "byteLength": 377784,
            "target": 34963
        }
    ],
    "images": [
        {
            "uri": "data:image/png;base64,"
        }
    ],
    "materials": [
        {
            "name": "material",
            "pbrMetallicRoughness": {
                "baseColorTexture": {
                    "index": 0
                }
            }
        },
        {
            "name": "material"
        }
    ],
    "meshes": [
        {
            "name": "geometry_0",
            "primitives": [
                {
                    "mode": 4,
                    "material": 0,
                    "indices": 2,
                    "attributes": {
                        "POSITION": 0,
                        "TEXCOORD_0": 1
                    }
                }
            ]
        }
    ],
    "nodes": [
        {
            "name": "world",
            "children": [
                1
            ]
        },
        {
            "name": "geometry_0",
            "mesh": 0
        }
    ],
    "samplers": [
        {}
    ],
    "scenes": [
        {
            "nodes": [
                0
            ]
        }
    ],
    "textures": [
        {
            "source": 0,
            "sampler": 0
        }
    ],
    "scene": 0
}